{
	"bufferViews":[{
		"buffer":0,
		"byteOffset":0,
		"byteLength":14004,
		"target":34963
	},
	{
		"buffer":0,
		"byteOffset":14004,
		"byteLength":224064,
		"target":34962,
		"byteStride":32
	}],
	"asset":{
		"generator":"Maxon Cinema 4D 2025.0.2 (#200000219)",
		"version":"2.0"
	},
	"scenes":[{
		"nodes":[0]
	}],
	"nodes":[{
		"name":"Bouton0",
		"mesh":0
	}],
	"meshes":[{
		"name":"Bouton0",
		"primitives":[{
			"attributes":{
				"POSITION":1,
				"NORMAL":2,
				"TEXCOORD_0":3
			},
			"indices":0,
			"material":0
		}]
	}],
	"accessors":[{
		"bufferView":0,
		"type":"SCALAR",
		"componentType":5123,
		"count":7002,
		"byteOffset":0,
		"min":[0],
		"max":[7001]
	},
	{
		"bufferView":1,
		"type":"VEC3",
		"componentType":5126,
		"count":7002,
		"byteOffset":0,
		"min":[-34.597103118896487,
		0.12074466049671173,
		22.77529525756836],
		"max":[-26.597105026245118,
		5.661351203918457,
		30.77529525756836]
	},
	{
		"bufferView":1,
		"type":"VEC3",
		"componentType":5126,
		"count":7002,
		"byteOffset":12,
		"min":[-1.0,
		-1.0,
		-1.0],
		"max":[1.0,
		1.0,
		1.0]
	},
	{
		"bufferView":1,
		"type":"VEC2",
		"componentType":5126,
		"count":7002,
		"byteOffset":24,
		"min":[-0.03125,
		-0.04999999701976776],
		"max":[1.03125,
		1.0499999523162842]
	}],
	"buffers":[{
		"uri":"data:application/octet-stream;base64,",
		"byteLength":238068
	}],
	"materials":[{
		"pbrMetallicRoughness":{
			"baseColorFactor":[0.15869999999999946,
			0.31808999999999956,
			0.69,
			1.0],
			"metallicFactor":0.0,
			"roughnessFactor":0.5110000242711976
		},
		"emissiveFactor":[0.0,
		0.0,
		0.0],
		"alphaMode":"OPAQUE",
		"doubleSided":false,
		"name":"RS Material"
	}]
}